<svg width="354" height="354" viewBox="0 0 354 354" fill="none" xmlns="http://www.w3.org/2000/svg">
<path fill-rule="evenodd" clip-rule="evenodd" d="M40 0C17.9086 0 0 17.9086 0 40V314C0 336.091 17.9086 354 40 354H314C336.091 354 354 336.091 354 314V40C354 17.9086 336.091 0 314 0H40ZM240.451 164.75C240.984 164.941 241.514 165.138 242.041 165.339L217.287 228.177C216.106 223.074 212.394 219.199 206.151 216.55C198.684 213.05 186.551 209.433 169.751 205.7C151.317 201.733 135.917 197.533 123.551 193.1C121.889 192.473 120.26 191.798 118.661 191.074L147.038 128.057C147.441 134.039 151.162 138.57 158.201 141.65C165.667 144.917 177.684 148.3 194.251 151.8C212.917 155.767 228.317 160.083 240.451 164.75ZM177.801 251.9C193.145 251.9 204.064 249.687 210.557 245.261L186.785 305.605C183.738 305.735 180.627 305.8 177.451 305.8C157.617 305.8 138.367 303.35 119.701 298.45C102.998 294.066 89.0981 288.374 78 281.374L100.995 230.306C111.011 236.37 122.379 241.351 135.101 245.25C149.567 249.683 163.801 251.9 177.801 251.9ZM181.709 51.0579L153.76 113.127C154.582 112.454 155.479 111.812 156.451 111.2C162.751 107 172.784 104.9 186.551 104.9C208.484 104.9 231.117 111.2 254.451 123.8L275.801 72.35C263.901 65.35 250.134 60.1 234.501 56.6C218.867 52.8667 203.001 51 186.901 51C185.15 51 183.42 51.0193 181.709 51.0579Z" fill="#F2CE4C"/>
</svg>
